<svg width="86" height="77" viewBox="0 0 86 77" fill="none" xmlns="http://www.w3.org/2000/svg">
<g clip-path="url(#clip0)">
<rect width="86" height="77" rx="20" fill="white"/>
<g filter="url(#filter0_d)">
<path d="M2 16C2 4.9543 10.9543 -4 22 -4H66C77.0457 -4 86 4.9543 86 16V56C86 67.0457 77.0457 76 66 76H22C10.9543 76 2 67.0457 2 56V16Z" fill="#B6849F"/>
</g>
<path d="M73.5938 46.7578C72.9609 52.1719 70.957 56.3555 67.582 59.3086C64.2305 62.2383 59.7656 63.7031 54.1875 63.7031C48.1406 63.7031 43.2891 61.5352 39.6328 57.1992C36 52.8633 34.1836 47.0625 34.1836 39.7969V34.875C34.1836 30.1172 35.0273 25.9336 36.7148 22.3242C38.4258 18.7148 40.8398 15.9492 43.957 14.0273C47.0742 12.082 50.6836 11.1094 54.7852 11.1094C60.2227 11.1094 64.582 12.6328 67.8633 15.6797C71.1445 18.7031 73.0547 22.8984 73.5938 28.2656H66.8086C66.2227 24.1875 64.9453 21.2344 62.9766 19.4062C61.0312 17.5781 58.3008 16.6641 54.7852 16.6641C50.4727 16.6641 47.0859 18.2578 44.625 21.4453C42.1875 24.6328 40.9688 29.168 40.9688 35.0508V40.0078C40.9688 45.5625 42.1289 49.9805 44.4492 53.2617C46.7695 56.543 50.0156 58.1836 54.1875 58.1836C57.9375 58.1836 60.8086 57.3398 62.8008 55.6523C64.8164 53.9414 66.1523 50.9766 66.8086 46.7578H73.5938Z" fill="#E5E5E5"/>
<path d="M73.5938 46.7578L77.5667 47.2222L78.0885 42.7578H73.5938V46.7578ZM67.582 59.3086L70.2146 62.3202L70.216 62.3189L67.582 59.3086ZM39.6328 57.1992L36.5667 59.7681L36.5749 59.7778L39.6328 57.1992ZM36.7148 22.3242L33.1004 20.6109L33.0958 20.6205L33.0913 20.6301L36.7148 22.3242ZM43.957 14.0273L46.0563 17.4322L46.0655 17.4265L46.0747 17.4208L43.957 14.0273ZM67.8633 15.6797L65.1415 18.6109L65.1471 18.6161L65.1528 18.6213L67.8633 15.6797ZM73.5938 28.2656V32.2656H78.0156L77.5737 27.8659L73.5938 28.2656ZM66.8086 28.2656L62.8493 28.8345L63.3422 32.2656H66.8086V28.2656ZM62.9766 19.4062L60.2373 22.3211L60.246 22.3293L60.2548 22.3374L62.9766 19.4062ZM44.625 21.4453L41.4588 19.0008L41.4532 19.0082L41.4476 19.0155L44.625 21.4453ZM62.8008 55.6523L65.3862 58.7045L65.3893 58.7019L62.8008 55.6523ZM66.8086 46.7578V42.7578H63.3827L62.8561 46.143L66.8086 46.7578ZM69.6208 46.2934C69.0771 50.9451 67.4232 54.1325 64.948 56.2983L70.216 62.3189C74.4909 58.5784 76.8448 53.3986 77.5667 47.2222L69.6208 46.2934ZM64.9495 56.297C62.4975 58.4403 59.0509 59.7031 54.1875 59.7031V67.7031C60.4803 67.7031 65.9634 66.0362 70.2146 62.3202L64.9495 56.297ZM54.1875 59.7031C49.2307 59.7031 45.5315 57.9894 42.6907 54.6206L36.5749 59.7778C41.0467 65.0809 47.0506 67.7031 54.1875 67.7031V59.7031ZM42.6989 54.6303C39.8239 51.1989 38.1836 46.3957 38.1836 39.7969H30.1836C30.1836 47.7293 32.1761 54.5276 36.5667 59.7681L42.6989 54.6303ZM38.1836 39.7969V34.875H30.1836V39.7969H38.1836ZM38.1836 34.875C38.1836 30.5905 38.9423 27.0044 40.3384 24.0183L33.0913 20.6301C31.1124 24.8628 30.1836 29.6439 30.1836 34.875H38.1836ZM40.3293 24.0376C41.7405 21.0606 43.6565 18.9118 46.0563 17.4322L41.8578 10.6225C38.0232 12.9867 35.1111 16.3691 33.1004 20.6109L40.3293 24.0376ZM46.0747 17.4208C48.4847 15.9168 51.3427 15.1094 54.7852 15.1094V7.10938C50.0245 7.10938 45.6637 8.24725 41.8393 10.6339L46.0747 17.4208ZM54.7852 15.1094C59.4412 15.1094 62.7519 16.3919 65.1415 18.6109L70.5851 12.7485C66.4122 8.87369 61.0041 7.10938 54.7852 7.10938V15.1094ZM65.1528 18.6213C67.5705 20.8491 69.1511 24.0587 69.6138 28.6654L77.5737 27.8659C76.9583 21.7381 74.7186 16.5572 70.5738 12.7381L65.1528 18.6213ZM73.5938 24.2656H66.8086V32.2656H73.5938V24.2656ZM70.7679 27.6968C70.1179 23.1723 68.6131 19.1817 65.6984 16.4751L60.2548 22.3374C61.2775 23.2871 62.3274 25.2027 62.8493 28.8345L70.7679 27.6968ZM65.7158 16.4914C62.818 13.7681 58.987 12.6641 54.7852 12.6641V20.6641C57.6145 20.6641 59.2445 21.3881 60.2373 22.3211L65.7158 16.4914ZM54.7852 12.6641C49.3349 12.6641 44.7372 14.7546 41.4588 19.0008L47.7912 23.8898C49.4347 21.7611 51.6104 20.6641 54.7852 20.6641V12.6641ZM41.4476 19.0155C38.2788 23.1593 36.9688 28.6831 36.9688 35.0508H44.9688C44.9688 29.6528 46.0962 26.1063 47.8024 23.8751L41.4476 19.0155ZM36.9688 35.0508V40.0078H44.9688V35.0508H36.9688ZM36.9688 40.0078C36.9688 46.0819 38.234 51.4005 41.1833 55.5712L47.7151 50.9522C46.0238 48.5604 44.9688 45.0431 44.9688 40.0078H36.9688ZM41.1833 55.5712C44.2866 59.9597 48.7758 62.1836 54.1875 62.1836V54.1836C51.2555 54.1836 49.2525 53.1263 47.7151 50.9522L41.1833 55.5712ZM54.1875 62.1836C58.4789 62.1836 62.4129 61.223 65.3862 58.7045L60.2154 52.6002C59.2042 53.4567 57.3961 54.1836 54.1875 54.1836V62.1836ZM65.3893 58.7019C68.471 56.086 70.0424 51.9925 70.7611 47.3726L62.8561 46.143C62.2623 49.9606 61.1618 51.7968 60.2122 52.6028L65.3893 58.7019ZM66.8086 50.7578H73.5938V42.7578H66.8086V50.7578Z" fill="#E5E5E5"/>
<g filter="url(#filter1_d)">
<path d="M51.7344 56.2852C50 58.7695 47.5742 60.6328 44.457 61.875C41.3633 63.0938 37.7539 63.7031 33.6289 63.7031C29.457 63.7031 25.7539 62.7305 22.5195 60.7852C19.2852 58.8164 16.7773 56.0273 14.9961 52.418C13.2383 48.8086 12.3359 44.625 12.2891 39.8672V35.4023C12.2891 27.6914 14.082 21.7148 17.668 17.4727C21.2773 13.2305 26.3398 11.1094 32.8555 11.1094C38.1992 11.1094 42.5 12.4805 45.7578 15.2227C49.0156 17.9414 51.0078 21.8086 51.7344 26.8242H44.9844C43.7188 20.0508 39.6875 16.6641 32.8906 16.6641C28.3672 16.6641 24.9336 18.2578 22.5898 21.4453C20.2695 24.6094 19.0977 29.2031 19.0742 35.2266V39.4102C19.0742 45.1523 20.3867 49.7227 23.0117 53.1211C25.6367 56.4961 29.1875 58.1836 33.6641 58.1836C36.1953 58.1836 38.4102 57.9023 40.3086 57.3398C42.207 56.7773 43.7773 55.8281 45.0195 54.4922V42.9961H33.1719V37.5117H51.7344V56.2852Z" fill="#EABDB5"/>
<path d="M51.7344 56.2852L54.1942 58.0024L54.7344 57.2287V56.2852H51.7344ZM44.457 61.875L45.5566 64.6662L45.5676 64.6619L44.457 61.875ZM22.5195 60.7852L20.9597 63.3478L20.9665 63.3519L20.9733 63.356L22.5195 60.7852ZM14.9961 52.418L12.2989 53.7315L12.3024 53.7386L12.3059 53.7456L14.9961 52.418ZM12.2891 39.8672H9.28906V39.882L9.28921 39.8967L12.2891 39.8672ZM17.668 17.4727L15.3831 15.5286L15.3769 15.536L17.668 17.4727ZM45.7578 15.2227L43.8259 17.5178L43.8356 17.526L45.7578 15.2227ZM51.7344 26.8242V29.8242H55.2003L54.7034 26.3941L51.7344 26.8242ZM44.9844 26.8242L42.0354 27.3752L42.493 29.8242H44.9844V26.8242ZM22.5898 21.4453L20.1729 19.6681L20.1706 19.6712L22.5898 21.4453ZM19.0742 35.2266L16.0742 35.2149V35.2266H19.0742ZM23.0117 53.1211L20.6375 54.955L20.6437 54.9629L23.0117 53.1211ZM45.0195 54.4922L47.2165 56.535L48.0195 55.6714V54.4922H45.0195ZM45.0195 42.9961H48.0195V39.9961H45.0195V42.9961ZM33.1719 42.9961H30.1719V45.9961H33.1719V42.9961ZM33.1719 37.5117V34.5117H30.1719V37.5117H33.1719ZM51.7344 37.5117H54.7344V34.5117H51.7344V37.5117ZM49.2745 54.5679C47.9113 56.5206 45.9798 58.0387 43.3465 59.0881L45.5676 64.6619C49.1686 63.2269 52.0887 61.0185 54.1942 58.0024L49.2745 54.5679ZM43.3575 59.0838C40.687 60.1358 37.465 60.7031 33.6289 60.7031V66.7031C38.0429 66.7031 42.0396 66.0517 45.5566 64.6662L43.3575 59.0838ZM33.6289 60.7031C29.9428 60.7031 26.7851 59.8499 24.0658 58.2143L20.9733 63.356C24.7227 65.6111 28.9713 66.7031 33.6289 66.7031V60.7031ZM24.0794 58.2226C21.3624 56.5688 19.2322 54.2228 17.6863 51.0903L12.3059 53.7456C14.3225 57.8319 17.2079 61.064 20.9597 63.3478L24.0794 58.2226ZM17.6932 51.1044C16.1632 47.9627 15.3322 44.2319 15.2889 39.8376L9.28921 39.8967C9.33966 45.0181 10.3134 49.6545 12.2989 53.7315L17.6932 51.1044ZM15.2891 39.8672V35.4023H9.28906V39.8672H15.2891ZM15.2891 35.4023C15.2891 28.1269 16.9809 22.9325 19.9591 19.4093L15.3769 15.536C11.1831 20.4972 9.28906 27.2559 9.28906 35.4023H15.2891ZM19.9529 19.4167C22.8931 15.961 27.054 14.1094 32.8555 14.1094V8.10938C25.6257 8.10938 19.6616 10.4999 15.3831 15.5286L19.9529 19.4167ZM32.8555 14.1094C37.6777 14.1094 41.2356 15.3375 43.8259 17.5178L47.6897 12.9275C43.7644 9.62348 38.7207 8.10938 32.8555 8.10938V14.1094ZM43.8356 17.526C46.4189 19.6818 48.1231 22.8207 48.7654 27.2543L54.7034 26.3941C53.8925 20.7965 51.6123 16.201 47.68 12.9194L43.8356 17.526ZM51.7344 23.8242H44.9844V29.8242H51.7344V23.8242ZM47.9333 26.2732C47.2128 22.4171 45.6337 19.1689 42.9415 16.9071C40.2442 14.6412 36.7857 13.6641 32.8906 13.6641V19.6641C35.7924 19.6641 37.7479 20.3803 39.082 21.5011C40.421 22.626 41.4903 24.4579 42.0354 27.3752L47.9333 26.2732ZM32.8906 13.6641C27.5695 13.6641 23.1687 15.5938 20.1729 19.6681L25.0068 23.2225C26.6985 20.9218 29.1648 19.6641 32.8906 19.6641V13.6641ZM20.1706 19.6712C17.3229 23.5544 16.0989 28.8758 16.0742 35.2149L22.0742 35.2382C22.0964 29.5304 23.2161 25.6643 25.0091 23.2194L20.1706 19.6712ZM16.0742 35.2266V39.4102H22.0742V35.2266H16.0742ZM16.0742 39.4102C16.0742 45.5932 17.4889 50.8787 20.6375 54.955L25.3859 51.2872C23.2845 48.5666 22.0742 44.7115 22.0742 39.4102H16.0742ZM20.6437 54.9629C23.8674 59.1077 28.3123 61.1836 33.6641 61.1836V55.1836C30.0627 55.1836 27.4061 53.8845 25.3798 51.2793L20.6437 54.9629ZM33.6641 61.1836C36.4079 61.1836 38.9213 60.8798 41.1609 60.2162L39.4563 54.4634C37.899 54.9249 35.9827 55.1836 33.6641 55.1836V61.1836ZM41.1609 60.2162C43.5286 59.5147 45.5778 58.2974 47.2165 56.535L42.8225 52.4494C41.9769 53.3588 40.8854 54.04 39.4563 54.4634L41.1609 60.2162ZM48.0195 54.4922V42.9961H42.0195V54.4922H48.0195ZM45.0195 39.9961H33.1719V45.9961H45.0195V39.9961ZM36.1719 42.9961V37.5117H30.1719V42.9961H36.1719ZM33.1719 40.5117H51.7344V34.5117H33.1719V40.5117ZM48.7344 37.5117V56.2852H54.7344V37.5117H48.7344Z" fill="#EABDB5"/>
</g>
</g>
<defs>
<filter id="filter0_d" x="-2" y="-4" width="92" height="88" filterUnits="userSpaceOnUse" color-interpolation-filters="sRGB">
<feFlood flood-opacity="0" result="BackgroundImageFix"/>
<feColorMatrix in="SourceAlpha" type="matrix" values="0 0 0 0 0 0 0 0 0 0 0 0 0 0 0 0 0 0 127 0"/>
<feOffset dy="4"/>
<feGaussianBlur stdDeviation="2"/>
<feColorMatrix type="matrix" values="0 0 0 0 0 0 0 0 0 0 0 0 0 0 0 0 0 0 0.25 0"/>
<feBlend mode="normal" in2="BackgroundImageFix" result="effect1_dropShadow"/>
<feBlend mode="normal" in="SourceGraphic" in2="effect1_dropShadow" result="shape"/>
</filter>
<filter id="filter1_d" x="5.28906" y="8.10938" width="53.9112" height="66.5938" filterUnits="userSpaceOnUse" color-interpolation-filters="sRGB">
<feFlood flood-opacity="0" result="BackgroundImageFix"/>
<feColorMatrix in="SourceAlpha" type="matrix" values="0 0 0 0 0 0 0 0 0 0 0 0 0 0 0 0 0 0 127 0"/>
<feOffset dy="4"/>
<feGaussianBlur stdDeviation="2"/>
<feColorMatrix type="matrix" values="0 0 0 0 0 0 0 0 0 0 0 0 0 0 0 0 0 0 0.25 0"/>
<feBlend mode="normal" in2="BackgroundImageFix" result="effect1_dropShadow"/>
<feBlend mode="normal" in="SourceGraphic" in2="effect1_dropShadow" result="shape"/>
</filter>
<clipPath id="clip0">
<rect width="86" height="77" rx="20" fill="white"/>
</clipPath>
</defs>
</svg>
